# xmcd
#
# Track frame offsets: 
#        150
#        16887
#        33475
#        48255
#        63214
#        80267
#        96504
#        113177
#        128454
#        144282
#
# Disc length: 2210 seconds
#
# Revision: 1
# Processed by: cddbd v1.5.2PL0 Copyright (c) Steve Scherf et al.
# Submitted via: ExactAudioCopy v0.99pb5
#
DISCID=7608a00a
DTITLE=Jay Perez - Toda Mi Vida
DYEAR=1998
DGENRE=Latin
TTITLE0=Dame Tu Corazon
TTITLE1=Si Tu Te Vas
TTITLE2=Hombres Y Mujeres
TTITLE3=Mi Unica Ilusion
TTITLE4=Porque Te Fuiste
TTITLE5=Lo Que Es Querer
TTITLE6=Solo Contigo
TTITLE7=Toda Mi Vida
TTITLE8=Si Quieres
TTITLE9=Let's Stay Together
EXTD=
EXTT0=
EXTT1=
EXTT2=
EXTT3=
EXTT4=
EXTT5=
EXTT6=
EXTT7=
EXTT8=
EXTT9=
PLAYORDER=
